<svg width="2154" height="1968" viewBox="0 0 2154 1968" fill="none" xmlns="http://www.w3.org/2000/svg">
<path d="M1213.25 1191.97H561.969C510.482 1191.97 468.718 1150.23 468.718 1098.73C468.718 1047.23 510.482 1005.48 561.969 1005.48H1213.25C1264.76 1005.48 1306.5 1047.23 1306.5 1098.73C1306.5 1150.23 1264.76 1191.97 1213.25 1191.97" fill="url(#paint0_linear)"/>
<path d="M591.077 1010.54H367.572C320.466 1010.54 282.274 971.123 282.274 922.509V902.402C282.274 844.143 236.504 796.918 180.045 796.918C122.189 796.918 75.2822 748.505 75.2822 688.785V688.783C75.2822 629.064 122.189 580.65 180.045 580.65H197.236C253.675 580.65 299.445 533.424 299.445 475.166C299.445 426.55 337.617 387.142 384.723 387.142H1051.21C1077.83 387.142 1101.93 398.458 1119.16 416.69C1061.48 429.316 1024.33 463.192 1001.59 500.432C1000.67 501.952 999.736 503.487 998.778 505.035C932.227 614.568 895.751 692.076 778.644 740.059C638.263 797.584 585.911 904.749 591.077 1010.54" fill="url(#paint1_linear)"/>
<path d="M1748.13 1141.96H1231.43C1247.03 1115.85 1261.13 1088.32 1273.79 1060.14C1407.1 763.39 1321.74 546.674 1293.61 492.053H1731.56C1777.01 492.053 1813.85 533.139 1813.85 583.82C1813.85 644.556 1858.02 693.792 1912.48 693.792H1929.05C1984.89 693.792 2030.13 744.264 2030.13 806.527C2030.13 868.787 1984.89 919.254 1929.05 919.254C1874.56 919.254 1830.42 968.495 1830.42 1029.23V1050.2C1830.42 1100.88 1793.58 1141.96 1748.13 1141.96V1141.96ZM1767.25 619.616L1658.05 696.032L1699.41 804.311L1703.37 814.613L1813.85 737.322L1828.1 727.349L1860.7 704.544L1767.25 619.616Z" fill="url(#paint2_linear)"/>
<path d="M218.549 543.687C200.584 524.771 170.579 525.347 170.349 525.275C158.641 525.29 147.035 528.62 136.754 536.219C133.828 538.425 131.232 540.861 128.998 543.673L135.861 548.258C136.754 545.518 142.464 538.828 149.673 535.166C155.758 531.893 163.14 529.976 171.07 529.947C184.954 529.731 202.4 535.339 212.594 545.937C214.8 545.446 216.862 544.653 218.549 543.687" fill="#2BA14C"/>
<path d="M43.8219 767.968C79.2193 783.722 121.011 767.073 137.17 730.78C148.937 704.379 143.886 674.858 126.635 654.655C147.817 599.11 147.3 548.7 124.075 538.361C113.232 533.534 101.815 538.669 94.1198 543.272C79.8909 551.778 68.9917 564.006 59.5478 576.375C47.8093 591.779 37.3999 608.022 28.1378 624.84C19.2395 640.985 10.4951 657.649 4.80075 675.221C0.253654 689.241 -1.57918 704.337 1.58281 719.839C4.24111 732.711 11.1948 745.359 22.9333 755.208C29.1313 760.385 36.2947 764.61 43.8219 767.968" fill="#352E73"/>
<path d="M125.791 573.717C125.791 573.717 100.309 651.895 100.309 660.468C100.309 669.04 121.913 676.505 116.678 707.596C111.443 738.687 92.1794 750.417 72.1536 745.543C52.114 740.668 45.7988 714.133 61.4898 712.485C77.167 710.851 92.3871 715.102 96.985 697.749C101.611 680.397 89.451 660.26 89.451 660.26L125.791 573.717" fill="#7271B3"/>
<path d="M126.755 579.815L125.729 573.381C125.603 572.525 124.507 571.906 123.622 572.173L117.75 574.056C116.795 574.365 115.601 573.578 115.629 572.651L115.798 566.948C115.826 565.95 114.491 565.164 113.536 565.613L104.841 569.645L104.49 569.813L102.312 559.222C102.13 558.365 101.048 557.775 100.177 558.07L92.5072 560.767C91.6082 561.076 90.4422 560.402 90.3439 559.503L89.4731 550.709C89.4169 550.147 88.9111 549.613 88.2368 549.431L83.1518 548.082C82.1685 547.829 81.6065 546.832 82.0841 546.158C97.3676 524.778 122.554 529.736 124.156 530.074L124.324 530.116C127.738 531.155 130.758 532.419 133.399 533.838C158.108 547.239 150.27 576.008 146.407 586.445C145.985 587.569 143.977 587.232 143.64 585.968L143.246 584.507C142.965 583.467 141.434 582.962 140.69 583.678C140.015 584.352 138.597 583.959 138.217 583.004L136.798 579.548C136.475 578.762 135.436 578.326 134.663 578.635L128.96 580.981C128.075 581.346 126.895 580.714 126.755 579.815" fill="#2BA14C"/>
<path d="M455.507 461.136L299.661 332.907C264.251 375.936 270.441 439.534 313.47 474.944C356.514 510.354 420.113 504.18 455.507 461.136Z" fill="#FC008B"/>
<path d="M379.897 475.668L369.219 411.201L329.513 459.459C343.996 470.63 361.623 476.284 379.897 475.668" fill="#FF7A03"/>
<path d="M380.663 412.151L390.995 474.535C406.343 471.877 420.497 464.785 431.709 454.154L380.663 412.151Z" fill="#FF7A03"/>
<path d="M361.771 402.678C339.163 403.045 319.338 403.611 299.391 405.401C301.257 423.099 308.845 439.313 321.22 451.964L361.771 402.678" fill="#FF7A03"/>
<path d="M298.994 394.241C317.336 392.608 335.51 391.998 355.729 391.616L311.11 354.901C303.694 366.651 299.482 380.278 298.994 394.241" fill="#FF7A03"/>
<path d="M394.72 440.013C397.002 439.33 398.197 436.629 397.405 433.991C396.629 431.337 391.554 425.113 389.35 425.967C387.115 426.805 388.372 433.805 389.164 436.458C389.955 439.097 392.439 440.696 394.72 440.013" fill="#FCC13F"/>
<path d="M418.003 455.764C419.756 454.167 419.662 451.209 417.799 449.174C415.937 447.139 408.674 443.742 407.046 445.464C405.402 447.202 409.597 452.946 411.46 454.981C413.323 457.016 416.25 457.376 418.003 455.764" fill="#FCC13F"/>
<path d="M362.255 473.678C364.631 473.74 366.623 471.563 366.715 468.804C366.792 466.045 363.972 458.55 361.596 458.642C359.22 458.749 358.209 465.785 358.117 468.544C358.025 471.303 359.879 473.602 362.255 473.678" fill="#FCC13F"/>
<path d="M351.865 453.007C353.625 454.598 356.563 454.216 358.4 452.18C360.252 450.129 362.945 442.569 361.078 441.115C359.196 439.662 353.87 444.36 352.018 446.411C350.166 448.461 350.105 451.415 351.865 453.007" fill="#FCC13F"/>
<path d="M322.476 435.713C324.23 437.316 327.164 436.938 329.009 434.896C330.855 432.839 333.562 425.293 331.686 423.826C329.796 422.374 324.487 427.077 322.627 429.134C320.782 431.176 320.707 434.125 322.476 435.713" fill="#FCC13F"/>
<path d="M334.849 416.715C335.397 419.029 338.03 420.384 340.71 419.76C343.404 419.12 349.905 414.447 349.205 412.178C348.474 409.91 341.425 410.747 338.746 411.387C336.051 412.011 334.316 414.401 334.849 416.715" fill="#FCC13F"/>
<path d="M308.705 384.566C308.314 386.916 310.227 389.176 312.938 389.613C315.68 390.05 323.483 388.212 323.694 385.847C323.89 383.466 317.051 381.553 314.324 381.116C311.598 380.68 309.082 382.231 308.705 384.566Z" fill="#FCC13F"/>
<path d="M324.557 378.28C323.148 380.19 323.8 383.069 326.027 384.706C328.24 386.342 336.029 388.282 337.287 386.282C338.56 384.266 333.362 379.432 331.134 377.795C328.907 376.143 325.967 376.371 324.557 378.28Z" fill="#FCC13F"/>
<path d="M498.815 969.505C509.562 972.945 514.448 985.904 509.724 998.464C505 1011.03 492.468 1018.41 481.722 1014.97C470.959 1011.53 466.056 998.558 470.78 986.011C475.504 973.451 488.053 966.063 498.815 969.505" fill="#2BA14C"/>
<path d="M496.406 971.606C499.654 971.753 502.191 974.287 502.061 977.26C501.916 980.233 499.169 982.528 495.905 982.381C492.641 982.221 490.104 979.7 490.25 976.727C490.395 973.754 493.142 971.461 496.406 971.606Z" fill="#8CD334"/>
<path d="M477.159 273.419L478.213 272.867C480.454 271.613 483.298 271.713 485.472 273.152L485.539 273.168C487.413 274.473 489.755 274.824 491.896 274.055L493 273.72C495.124 272.951 496.747 271.228 497.483 269.12V268.986C498.269 266.527 500.46 264.738 503.053 264.37L504.241 264.169C506.8 263.734 509.426 264.738 510.948 266.895L510.965 266.946C512.303 268.769 514.411 269.94 516.669 269.99L517.84 269.973C520.082 270.024 522.256 268.986 523.594 267.23L523.661 267.13C525.284 265.039 527.943 264.119 530.486 264.621L531.657 264.855C534.216 265.357 536.324 267.197 537.043 269.722L537.093 269.823C537.679 271.981 539.234 273.754 541.359 274.59L542.446 275.008C544.537 275.811 546.912 275.527 548.803 274.339L548.92 274.289C551.111 272.934 553.955 272.968 556.163 274.322L557.15 274.908C559.408 276.246 560.779 278.739 560.562 281.331V281.448C560.395 283.69 561.264 285.898 562.954 287.336L563.874 288.156C565.563 289.595 567.855 290.18 570.063 289.678H570.18C572.723 289.126 575.366 290.13 577.005 292.171L577.741 293.074C579.38 295.115 579.815 297.908 578.711 300.284V300.35C577.758 302.408 577.842 304.766 578.895 306.74L579.497 307.777C580.618 309.785 582.559 311.089 584.817 311.374L584.884 311.407C587.477 311.759 589.618 313.582 590.471 316.108L590.872 317.195C591.675 319.654 591.106 322.431 589.333 324.304L589.216 324.354C587.677 325.977 586.908 328.252 587.276 330.46L587.443 331.597C587.811 333.889 589.216 335.729 591.223 336.833L591.29 336.85C593.632 338.088 594.97 340.513 594.937 343.139L594.887 344.327C594.87 346.936 593.415 349.328 591.056 350.449L590.939 350.499C588.949 351.503 587.443 353.343 587.025 355.551L586.791 356.739C586.339 358.947 587.008 361.238 588.564 362.894L588.597 362.945C590.387 364.902 590.805 367.695 589.885 370.104L589.467 371.191C588.547 373.65 586.322 375.39 583.696 375.674L583.629 375.708C581.404 375.908 579.33 377.129 578.209 379.087L577.574 380.107C576.42 382.014 576.269 384.373 577.122 386.463L577.172 386.564C578.159 388.989 577.591 391.766 575.901 393.706L575.148 394.61C573.409 396.583 570.766 397.504 568.173 396.835L568.106 396.818C565.965 396.282 563.606 396.734 561.833 398.156L560.93 398.892C559.157 400.331 558.203 402.505 558.287 404.747L558.337 404.847C558.421 407.456 556.949 409.899 554.724 411.153L553.654 411.722C552.483 412.324 551.178 412.659 549.923 412.592L543.667 400.832L485.539 291.769L476.172 274.139C476.456 273.854 476.808 273.603 477.159 273.419" fill="#2BA14C"/>
<path d="M485.564 291.749C513.415 276.968 548.298 288.108 563.496 316.69C578.626 345.173 568.401 380.223 540.633 395.087L485.564 291.749Z" fill="#8CD334"/>
<path d="M551.529 372.926C553.72 375.249 553.605 378.89 551.282 381.064C548.976 383.255 545.318 383.14 543.144 380.817C540.953 378.511 535.533 368.066 537.839 365.891C540.162 363.7 549.355 370.62 551.529 372.926Z" fill="#FEE2BF"/>
<path d="M555.648 346.102C558.837 345.854 561.597 348.217 561.861 351.39C562.109 354.547 559.746 357.323 556.573 357.587C553.4 357.835 541.849 355.571 541.601 352.398C541.353 349.225 552.475 346.366 555.648 346.102Z" fill="#FEE2BF"/>
<path d="M546.099 319.6C548.49 317.522 552.135 317.769 554.229 320.16C556.307 322.568 556.059 326.196 553.668 328.29C551.261 330.384 540.625 335.414 538.547 333.023C536.452 330.615 543.708 321.694 546.099 319.6" fill="#FEE2BF"/>
<path d="M523.251 303.979C524.592 301.1 528.011 299.856 530.907 301.198C533.786 302.539 535.03 305.958 533.688 308.838C532.347 311.733 524.674 320.649 521.794 319.308C518.915 317.966 521.909 306.858 523.251 303.979" fill="#FEE2BF"/>
<path d="M497.724 300.653C497.449 297.493 499.798 294.69 502.958 294.431C506.133 294.155 508.92 296.505 509.196 299.664C509.471 302.84 507.251 314.409 504.092 314.668C500.916 314.944 497.983 303.829 497.724 300.653Z" fill="#FEE2BF"/>
<path d="M1775.45 423.573C1762.72 411.108 1762.4 390.564 1774.71 377.68C1787.04 364.796 1807.35 364.456 1820.1 376.918C1832.84 389.382 1833.16 409.926 1820.84 422.81C1808.53 435.691 1788.2 436.034 1775.45 423.573ZM1855.9 339.495C1822.72 307.039 1769.8 307.927 1737.7 341.479C1705.6 375.03 1706.46 428.539 1739.65 460.995C1772.86 493.451 1825.75 492.563 1857.85 459.012C1889.95 425.46 1889.09 371.951 1855.9 339.495Z" fill="#FC008B"/>
<path d="M1790.2 348.672C1788.51 347.028 1788.46 344.317 1790.1 342.619L1795.97 336.468C1797.61 334.768 1800.29 334.725 1801.95 336.369C1803.64 338.01 1803.69 340.719 1802.07 342.419L1796.18 348.571C1794.54 350.268 1791.86 350.314 1790.2 348.672" fill="#FAE0B2"/>
<path d="M1844.84 433.188C1842.96 434.581 1840.32 434.162 1838.96 432.25L1833.95 425.333C1832.56 423.421 1833 420.746 1834.88 419.355C1836.76 417.961 1839.42 418.381 1840.79 420.292L1845.79 427.207C1847.16 429.119 1846.74 431.796 1844.84 433.188Z" fill="#FAE0B2"/>
<path d="M1768.21 360.674L1768.06 361.425C1767.63 363.536 1765.62 364.909 1763.52 364.49L1757.56 363.296C1755.48 362.88 1754.11 360.827 1754.52 358.716L1754.66 357.968C1755.07 355.855 1757.1 354.481 1759.21 354.9L1765.17 356.094C1767.25 356.513 1768.61 358.563 1768.21 360.674" fill="#FAE0B2"/>
<path d="M1812.49 455.268L1812.35 456.019C1811.94 458.131 1809.91 459.506 1807.82 459.087L1801.85 457.892C1799.77 457.473 1798.41 455.423 1798.82 453.311L1798.97 452.56C1799.38 450.45 1801.39 449.078 1803.49 449.494L1809.45 450.69C1811.55 451.109 1812.91 453.158 1812.49 455.268Z" fill="#FAE0B2"/>
<path d="M1832.52 361.775L1831.91 362.252C1830.26 363.593 1827.83 363.318 1826.49 361.634L1822.72 356.822C1821.38 355.138 1821.65 352.685 1823.32 351.344L1823.91 350.865C1825.59 349.527 1828 349.802 1829.33 351.486L1833.13 356.301C1834.44 357.982 1834.18 360.435 1832.52 361.775Z" fill="#FAE0B2"/>
<path d="M1783.58 457.642V457.644C1781.75 459.115 1779.08 458.812 1777.64 456.964L1774.33 452.748C1772.86 450.898 1773.15 448.206 1774.98 446.733C1776.8 445.26 1779.47 445.565 1780.94 447.413L1784.25 451.629C1785.72 453.477 1785.41 456.168 1783.58 457.642" fill="#FAE0B2"/>
<path d="M1858.53 390.443L1858.58 391.207C1858.7 393.356 1857.08 395.197 1854.95 395.319L1848.88 395.674C1846.75 395.794 1844.92 394.152 1844.79 392.005L1844.77 391.241C1844.65 389.092 1846.26 387.251 1848.39 387.128L1854.46 386.776C1856.59 386.653 1858.43 388.296 1858.53 390.443Z" fill="#FAE0B2"/>
<path d="M1755.47 427.777L1755.52 428.543C1755.64 430.691 1754.02 432.532 1751.89 432.654L1745.81 433.007C1743.69 433.128 1741.85 431.488 1741.74 429.339L1741.71 428.574C1741.59 426.425 1743.21 424.584 1745.34 424.462L1751.42 424.112C1753.54 423.988 1755.35 425.628 1755.47 427.777" fill="#FAE0B2"/>
<path d="M1749.38 397.745C1747.43 399.077 1744.81 398.572 1743.5 396.619L1738.73 389.545C1737.42 387.591 1737.92 384.928 1739.83 383.598C1741.78 382.269 1744.4 382.774 1745.71 384.728L1750.5 391.801C1751.81 393.752 1751.31 396.416 1749.38 397.745Z" fill="#FAE0B2"/>
<path d="M1860.7 704.54L1703.36 814.61L1699.44 804.306L1658.05 696.029L1767.28 619.612L1860.7 704.54Z" fill="#FCC13F"/>
<path d="M1674.22 671.727H1767.27V802.779H1674.22" fill="#FE9116"/>
<path d="M1813.84 737.319L1828.1 727.347L1813.84 737.319Z" fill="url(#paint3_linear)"/>
<path d="M1792.19 752.453L1716.76 654.952L1735.62 641.768L1828.1 727.347L1813.84 737.319L1792.19 752.453Z" fill="#FE9116"/>
<path d="M1718.76 643.219C1718.76 643.219 1697.54 654.904 1682.87 661.052C1668.23 667.199 1643.75 679.667 1644.48 693.372C1645.24 707.076 1658.69 717.573 1665.24 714.264C1671.76 710.958 1675.09 706.093 1677.81 699.135C1680.54 692.179 1678.84 687.825 1677.96 683.584C1677.96 683.584 1677.38 679.103 1683.85 684.703C1690.27 690.306 1696.21 720.303 1705.28 731.019C1714.35 741.733 1726.74 730.839 1721.56 720.999C1717.49 713.316 1685.26 688.55 1687.03 680.682C1688.79 672.812 1695.52 670.53 1700.22 675.451C1704.94 680.375 1708.18 698.848 1715.06 705.227C1722.24 711.888 1730.7 701.857 1725.74 694.284C1720.75 686.708 1701.63 674.894 1704.04 670.673C1706.47 666.452 1718.34 672.897 1731.19 671.819C1744.04 670.739 1747 652.858 1746.54 644.966C1746.05 637.076 1753.38 619.959 1769.31 629.659C1785.27 639.356 1798.55 680.937 1807.07 689.511C1815.61 698.084 1833.88 689.411 1826.8 674.773C1820.79 662.394 1790.21 640.339 1778.14 629.065C1775.78 626.863 1773.69 623.603 1774.64 620.521C1776.12 615.59 1774.2 610.359 1768.97 606.367C1759.46 599.11 1743.35 602.316 1733.57 615.463C1723.82 628.615 1718.76 643.219 1718.76 643.219" fill="#F3FFFF"/>
<path d="M1738.69 628.331C1738.69 628.331 1724.25 635.264 1723.42 635.858C1722.56 636.452 1700.84 641.535 1691.2 649.869C1681.53 658.204 1669.81 673.051 1669.81 673.051C1669.81 673.051 1721.59 650.408 1722.23 649.964C1722.85 649.518 1738.69 628.331 1738.69 628.331" fill="#F3FFFF"/>
<path d="M1698.69 583.065C1706.14 584.101 1714.25 588.062 1717.66 594.814C1723.17 605.586 1716.5 619.12 1712.86 625.931C1712.08 627.348 1710.9 628.204 1710.61 628.982C1714.35 620.499 1719.29 611.29 1718.11 602.003C1716.9 592.177 1708.1 586.83 1698.29 585.801L1698.69 583.065" fill="#FF7A03"/>
<path d="M1727.69 633.766C1729.23 641.168 1722.74 648.783 1713.2 650.773C1703.65 652.765 1694.65 648.376 1693.11 640.974C1691.57 633.572 1698.06 625.959 1707.61 623.967C1717.15 621.978 1726.13 626.364 1727.69 633.766Z" fill="#FC008B"/>
<path d="M1715.38 623.742C1724.8 631.057 1719 644.664 1705.26 647.53C1702.59 648.089 1699.96 648.13 1697.52 647.758C1701.38 650.738 1707.16 652.031 1713.2 650.773C1722.74 648.783 1729.23 641.168 1727.69 633.766C1726.58 628.447 1721.61 624.699 1715.38 623.742Z" fill="#D6007E"/>
<path d="M1843.28 516.419C1843.45 516.796 1843.63 517.175 1843.8 517.554C1844.88 519.914 1845.96 522.274 1847.04 524.634C1847.32 525.282 1847.62 525.93 1847.92 526.575L1919.73 508.827L1960.93 478.592L1956.66 466.736L1952.8 467.959L1950.76 472.026L1946.22 472.16L1944.08 476.177L1939.54 476.207L1937.33 480.176L1932.79 480.111L1930.48 484.03L1925.93 483.867L1923.55 487.736L1919 487.473L1916.54 491.289L1912.02 490.917L1909.46 494.671L1904.94 494.189L1902.26 497.875L1897.76 497.27L1895 500.88L1890.5 500.144L1887.64 503.665L1883.17 502.781L1880.16 506.2L1875.77 505.153L1872.63 508.455L1868.26 507.225L1864.97 510.383L1860.68 508.947L1857.24 511.935L1853.02 510.268L1849.4 513.05L1845.29 511.114L1841.47 512.487C1842.07 513.798 1842.67 515.109 1843.28 516.419" fill="#2BA14C"/>
<path d="M1847.63 525.591C1846.69 525.695 1870.62 569.527 1874.15 582.301C1877.68 595.075 1893.48 639.016 1893.48 639.016L2009.48 593.657C2009.48 593.657 1978.9 535.072 1971.96 515.706C1965 496.339 1961.9 478.487 1960.93 478.591C1959.97 478.695 1878.9 522.181 1847.63 525.591Z" fill="#8CD334"/>
<path d="M1940.09 633.933C1940.09 633.933 1954.86 656.886 1992.24 647.977C2026.68 639.77 2023.36 602.573 2005.14 601.205C1986.93 599.838 1967.8 603.514 1957.03 600.006C1937.23 593.562 1929.5 623.168 1940.09 633.933Z" fill="#FF7A03"/>
<path d="M1983.96 586.963C1982.55 590.539 1982.37 595.062 1982.73 598.279C1983.71 607.356 1989 615.005 1996.82 619.618C2016.41 631.155 2059.56 619.891 2050.66 597.436C2041.76 574.981 2022.15 594.484 2010.16 588.827C2004.82 586.289 2001.32 581.219 1995.38 580.254C1990.62 579.48 1985.4 583.273 1983.96 586.963Z" fill="#FCC13F"/>
<path d="M2012.3 508.966C2014.65 511.996 2018.48 514.463 2021.42 515.799C2029.74 519.576 2038.99 518.927 2046.97 514.549C2066.89 503.593 2079.18 460.733 2055.34 456.936C2031.5 453.138 2038.26 479.953 2027.28 487.365C2022.35 490.687 2016.23 491.103 2012.38 495.711C2009.28 499.421 2009.87 505.84 2012.3 508.966" fill="#FCC13F"/>
<path d="M1937.59 612.766C1930.08 616.743 1921.4 618.033 1913.08 616.107C1906.97 614.684 1892.9 613.905 1885.18 621.326C1871.13 634.808 1877.96 655.157 1898.12 663.154C1915.8 670.16 1965.97 665.554 1965.87 629.184C1965.82 603.726 1950.46 605.981 1937.59 612.766Z" fill="#FCC13F"/>
<path d="M1975.35 541.954C1980.45 556.28 1963.57 575.38 1937.66 584.613C1911.78 593.849 1886.63 589.722 1881.51 575.395C1876.41 561.069 1893.26 541.969 1919.17 532.736C1945.08 523.5 1970.23 527.627 1975.35 541.954Z" fill="#FEE2BF"/>
<path d="M1892.2 649.524C1895.46 647.051 1897.27 642.542 1899.1 638.987C1901.18 634.986 1902.97 630.599 1903.81 626.157C1904.06 624.927 1902.42 624.647 1901.88 625.575C1899.6 629.378 1897.72 633.513 1895.79 637.499C1894.05 641.035 1891.26 644.617 1890.51 648.499C1890.34 649.413 1891.48 650.074 1892.2 649.524Z" fill="#FF7A03"/>
<path d="M1904.31 653.157C1910.37 650.673 1915.14 635.234 1916.55 628.754C1916.9 627.184 1914.29 626.362 1913.82 627.937C1912.45 632.395 1910.64 636.583 1908.55 640.745C1906.82 644.21 1903.26 648.251 1903.02 652.123C1902.97 652.816 1903.59 653.452 1904.31 653.157Z" fill="#FF7A03"/>
<path d="M1922.38 650.181C1923.73 647.721 1923.85 645.018 1924.27 642.299C1924.72 639.324 1925.57 636.421 1926.02 633.454C1926.44 630.66 1922.56 629.692 1921.56 632.119C1919.52 637.036 1917.58 645.06 1919.79 650.127C1920.32 651.277 1921.81 651.242 1922.38 650.181" fill="#FF7A03"/>
<path d="M1935.42 646.759C1936.02 643.211 1936.37 638.324 1934.4 635.125C1933 632.826 1929.41 638.107 1933.23 646.997C1933.68 648.02 1935.23 647.883 1935.42 646.759" fill="#FF7A03"/>
<path d="M1939.58 635.127C1941.31 643.379 1945.46 641.135 1945.08 639.099C1944.73 637.141 1943.21 635.242 1941.78 633.914C1940.96 633.136 1939.33 633.984 1939.58 635.127" fill="#FF7A03"/>
<path d="M1996.24 591.7C1994.51 594.173 1993.52 596.534 1992.74 599.443C1992.08 601.97 1991.04 604.838 1992.56 607.2C1992.92 607.775 1993.93 607.965 1994.46 607.486C1996.26 605.781 1996.26 603.391 1996.74 601.057C1997.32 598.24 1998.03 595.544 1998.44 592.686C1998.62 591.512 1996.97 590.63 1996.24 591.7Z" fill="#FF7A03"/>
<path d="M2003.11 595.406C2001.82 598.762 1999.53 608.419 2000.62 612.039C2001 613.316 2002.83 613.171 2003.34 612.097C2004.46 609.765 2004.28 607.041 2004.53 604.508C2004.86 601.704 2005.32 598.937 2005.5 596.12C2005.57 594.802 2003.64 593.983 2003.11 595.406" fill="#FF7A03"/>
<path d="M2012.5 596.417C2012.22 599.435 2011.56 609.717 2012.62 612.87C2012.98 613.937 2014.86 614.092 2015.22 612.924C2016.72 608.017 2015.53 601.492 2014.91 596.478C2014.76 595.162 2012.65 595.012 2012.5 596.417Z" fill="#FF7A03"/>
<path d="M2021.18 597.608C2020.75 599.603 2021.03 601.488 2021.21 603.495C2021.64 608.11 2021.67 610.619 2023.6 610.762C2025.16 610.877 2025.98 609.964 2025.98 608.487C2026 606.985 2025.01 599.58 2023.88 597.315C2023.27 596.075 2021.49 596.206 2021.18 597.608" fill="#FF7A03"/>
<path d="M2030.85 597.918C2029.35 601.104 2029.73 605.81 2032.13 606.061C2033.08 606.163 2033.82 605.948 2034.28 605.056C2035.3 603.11 2032.95 601.584 2033.23 598.629C2033.36 597.241 2031.47 596.594 2030.85 597.918Z" fill="#FF7A03"/>
<path d="M2024.77 501.109C2026.45 504.365 2028.5 504.235 2030.26 511.033C2030.82 513.147 2034.32 512.244 2033.99 510.108C2033.38 506.1 2030.41 500.225 2025.89 499.719C2025.2 499.639 2024.41 500.368 2024.77 501.109Z" fill="#FF7A03"/>
<path d="M2029.98 496.657C2039.64 505.255 2038.21 508.293 2041.72 509.981C2042.48 510.355 2043.35 509.799 2043.53 509.008C2044.15 505.993 2041.07 502.716 2039.2 500.662C2036.85 498.043 2034.34 496.242 2031.11 494.795C2029.96 494.27 2029.06 495.84 2029.98 496.657" fill="#FF7A03"/>
<path d="M2036.74 488.763C2047.68 496.309 2047.99 500.922 2051.35 500.56C2051.74 500.517 2052.17 500.242 2052.33 499.846C2053.28 496.932 2049.37 494.226 2047.45 492.522C2044.57 490.013 2041.47 488.242 2037.97 486.768C2036.79 486.27 2035.61 487.977 2036.74 488.763" fill="#FF7A03"/>
<path d="M2042.66 479.561C2046.52 482.312 2050.76 484.475 2054.44 487.504C2056.81 489.461 2059.84 485.696 2057.42 483.775C2053.33 480.533 2048.94 477.738 2043.67 477.28C2042.48 477.177 2041.53 478.759 2042.66 479.561Z" fill="#FF7A03"/>
<path d="M2054.67 473.559C2055.23 474.137 2056.13 474.628 2056.96 474.206L2056.91 474.201C2057.29 474.15 2057.73 473.903 2057.86 473.512L2057.75 473.618C2058.32 472.7 2058.29 471.664 2057.44 470.903C2055.23 468.916 2052.3 468.158 2049.35 468.726C2048.19 468.95 2047.91 470.878 2049.3 470.981C2049.37 471.004 2052.38 471.068 2054.67 473.559" fill="#FF7A03"/>
<path d="M2040.7 543.476C2041.92 548.553 2045.67 553.822 2049.02 557.217C2058.48 566.807 2072.67 571.677 2087.71 571.265C2125.34 570.24 2175.68 526.311 2143.28 507.234C2110.88 488.161 2100.79 524.458 2079.02 526.673C2069.24 527.666 2059.86 524.426 2050.71 527.611C2043.37 530.174 2039.43 538.244 2040.7 543.476" fill="#FCC13F"/>
<path d="M2066.29 536.55C2064.61 538.53 2066.08 541.691 2066.21 543.9C2066.34 546.541 2065.03 549.97 2066.55 552.373C2066.88 552.865 2067.73 553.128 2068.3 552.708C2071.03 550.668 2070.44 546.77 2070.16 544.027C2069.92 541.683 2069.8 537.545 2066.65 536.462C2066.52 536.421 2066.37 536.462 2066.29 536.55Z" fill="#FF7A03"/>
<path d="M2077.86 534.921C2077.89 538.641 2079 542.17 2079.49 545.869C2079.96 549.452 2079.21 553.425 2080.86 556.799C2081.3 557.681 2082.75 557.487 2083.19 556.736C2085.03 553.534 2084.1 549.382 2083.61 545.983C2083.04 542.004 2082.36 538.139 2079.91 534.642C2079.44 533.974 2077.86 533.961 2077.86 534.921Z" fill="#FF7A03"/>
<path d="M2091.78 531.697C2096.64 548.182 2094.93 552.089 2098.12 555.729C2100.05 557.879 2106 555.747 2093.81 531.195C2093.37 530.293 2091.5 530.73 2091.78 531.697Z" fill="#FF7A03"/>
<path d="M2102.83 526.731C2102.18 530.292 2105.75 534.878 2107.5 538.083C2109.61 541.963 2111.78 546.319 2114.88 549.758C2115.9 550.908 2118.35 550.001 2117.98 548.619C2116.86 544.468 2114.31 540.236 2112.14 536.375C2110.37 533.16 2108.54 527.99 2104.81 525.998C2104.01 525.557 2102.96 525.943 2102.83 526.731" fill="#FF7A03"/>
<path d="M2113.88 519.033C2118.54 525.112 2122.49 531.659 2127.39 537.592C2129.53 540.206 2133.93 537.482 2132.8 534.88C2129.74 527.885 2122.78 521.885 2115.43 517.708C2114.33 517.07 2113.26 518.187 2113.88 519.033" fill="#FF7A03"/>
<path d="M2125.96 514.364C2127.82 517 2131.65 523.017 2135.45 522.928C2136.81 522.897 2138.07 522.292 2138.2 521.081C2138.54 517.809 2131.23 514.307 2128.32 512.806C2127.12 512.182 2125.12 513.17 2125.96 514.364" fill="#FF7A03"/>
<path d="M1496.97 402.142C1490.16 405.004 1484.09 409.838 1481.5 416.194C1478.06 424.624 1480.04 441.388 1490.51 455.849C1496.35 463.925 1509.49 477.238 1531.76 475.656C1555.04 474 1578.62 461.734 1593.33 443.647C1603.15 431.567 1607.72 418.64 1606.17 407.244C1604.19 392.513 1595.5 384.693 1588.57 380.727C1578.8 375.133 1567.79 374.519 1562.38 376.785C1556.66 379.187 1551.64 385.806 1550.21 392.878C1549.43 396.671 1549.86 400.087 1551.32 401.579C1556.05 406.475 1555.94 414.298 1551.04 419.049C1549.59 420.449 1547.9 421.425 1546.12 421.982C1545.25 423.744 1544.25 425.532 1543.12 427.343C1539.49 433.124 1531.87 434.868 1526.1 431.242C1520.32 427.615 1518.57 419.989 1522.2 414.21C1525.27 409.293 1525.36 406.761 1525.17 406.263C1522.56 400.068 1515.01 399.174 1510.76 399.195C1506.37 399.214 1501.52 400.241 1496.97 402.142V402.142ZM1568.55 491.847C1557.39 496.526 1545.52 499.448 1533.54 500.302C1508.55 502.081 1485.56 491.161 1470.48 470.342C1456.02 450.37 1451.24 424.851 1458.61 406.842C1467.27 385.714 1491.34 374.572 1510.65 374.484C1517.44 374.454 1523.72 375.692 1529.17 378.036C1533.97 367.232 1542.59 358.289 1552.84 353.997C1566.43 348.295 1585.27 350.369 1600.84 359.28C1617.47 368.793 1628.07 384.651 1630.68 403.937C1633.13 422.169 1626.68 441.806 1612.5 459.237C1600.93 473.469 1585.57 484.705 1568.55 491.847" fill="#FFA42F"/>
<path d="M1619.38 397.711C1619.22 397.831 1613.87 401.715 1605.95 405.806C1606.02 406.284 1606.11 406.75 1606.18 407.242C1607.72 418.622 1603.18 431.531 1593.36 443.597C1599.57 442.186 1605.44 440.175 1610.73 437.961C1618.11 434.865 1624.35 431.378 1628.8 428.631C1631.11 420.333 1631.76 411.996 1630.67 403.936C1630.3 401.209 1629.75 398.559 1629.08 395.977C1625.71 395.068 1622.22 395.571 1619.38 397.711" fill="#FF7A03"/>
<path d="M1511.55 472.659C1501.14 468.504 1494.27 461.082 1490.5 455.85C1489.67 454.71 1488.93 453.554 1488.2 452.39C1480.86 458.681 1473.76 464.061 1468.64 467.684C1469.24 468.578 1469.87 469.468 1470.49 470.344C1476.24 478.285 1483.14 484.78 1490.86 489.684C1496.53 485.426 1503.95 479.541 1511.55 472.659Z" fill="#FF7A03"/>
<path d="M1607.04 425.068C1585.66 434.038 1554.85 440.734 1533.55 418.788C1528.81 413.889 1528.93 406.067 1533.83 401.316C1538.73 396.563 1546.55 396.683 1551.32 401.582C1571.48 422.394 1617.05 391.944 1617.49 391.632C1623.11 387.757 1630.81 389.17 1634.68 394.789C1638.56 400.402 1637.15 408.098 1631.53 411.972C1630.54 412.661 1620.71 419.33 1607.04 425.068" fill="#FFA42F"/>
<path d="M1480.39 481.893C1474.91 484.199 1468.39 482.24 1465.14 477.016C1461.55 471.223 1463.31 463.607 1469.11 460.001C1480.23 453.077 1511.44 431.357 1522.21 414.206C1525.82 408.424 1533.45 406.682 1539.22 410.309C1545.02 413.933 1546.76 421.558 1543.13 427.34C1527.13 452.842 1483.98 479.848 1482.15 480.983C1481.59 481.337 1481 481.64 1480.39 481.893" fill="#FFA42F"/>
<path d="M453.276 571.745C453.276 571.745 449.666 584.298 460.301 591.745C470.951 599.192 497.553 579.826 506.496 575.777C515.439 571.728 518.838 574.915 518.838 574.915C518.838 574.915 498.626 533.842 467.325 540.232C448.658 544.037 447.747 557.484 453.276 571.745" fill="#8CD334"/>
<path d="M495.688 574.301C492.575 573.798 484.905 572.144 481.954 569.874C491.926 569.89 502.239 570.734 511.384 571.739C506.519 570.62 500.26 569.436 493.531 568.528C494.066 564.393 502.141 562.95 502.222 562.934C502.79 562.837 502.644 561.994 502.076 562.091C501.72 562.156 493.288 563.664 492.672 568.415C489.64 568.026 486.494 567.685 483.348 567.426C484.354 560.016 495.639 556.286 495.753 556.254C495.98 556.173 496.109 555.946 496.045 555.719C495.963 555.492 495.72 555.362 495.493 555.443C494.991 555.605 483.511 559.399 482.505 567.345C479.181 567.101 475.857 566.939 472.647 566.923C472.647 557.47 485.748 550.627 485.894 550.546C486.381 550.287 485.991 549.525 485.489 549.784C484.905 550.092 471.755 556.967 471.804 566.907C467.782 566.907 463.939 567.134 460.47 567.636C459.075 558.118 469.112 549.168 469.225 549.071C469.404 548.908 469.42 548.649 469.258 548.471C469.112 548.292 468.836 548.276 468.658 548.422C468.204 548.827 458.135 557.827 459.61 567.766C458.135 567.993 456.724 568.285 455.394 568.642C440.736 572.695 437.38 562.286 436.504 561.264C436.164 560.502 435.272 560.097 434.445 560.356C430.91 561.459 436.245 568.836 440.217 571.398C446.963 575.533 452.265 573.62 459.335 571.95C463.777 582.327 473.458 584.208 473.555 584.224H473.62C473.83 584.224 474.009 584.078 474.057 583.884C474.09 583.64 473.944 583.43 473.701 583.381C473.603 583.365 464.458 581.565 460.178 571.755C463.177 571.09 465.22 570.782 468.658 570.458C471.95 576.652 483.948 578.468 484.5 578.549H484.564C484.775 578.549 484.954 578.403 484.986 578.192C485.019 577.949 484.856 577.738 484.629 577.706C484.483 577.69 472.955 575.938 469.582 570.361C473.182 570.053 476.911 569.907 480.722 569.89C483.754 573.198 495.055 575.063 495.558 575.144C495.769 575.176 496.012 575.03 496.045 574.787C496.077 574.56 495.931 574.333 495.688 574.301" fill="#2BA14C"/>
<path d="M313.012 558.422C313.012 558.422 259.656 546.505 241.477 596.458C223.314 646.411 232.978 691.819 265.886 699.2C298.81 706.58 305.631 681.028 340.824 678.201C376.016 675.357 401 610.644 372.613 582.257C344.226 553.87 313.012 558.422 313.012 558.422Z" fill="#F3FFFF"/>
<path d="M335.148 628.853C335.148 649.238 318.623 665.749 298.253 665.749C277.868 665.749 261.342 649.238 261.342 628.853C261.342 608.468 277.868 591.958 298.253 591.958C318.623 591.958 335.148 608.468 335.148 628.853Z" fill="#FCC13F"/>
<path d="M298.253 591.958C296.619 591.958 294.999 592.064 293.425 592.26C311.525 594.636 325.493 610.103 325.493 628.853C325.493 647.588 311.525 663.07 293.425 665.431C294.999 665.643 296.619 665.749 298.253 665.749C318.623 665.749 335.148 649.238 335.148 628.853C335.148 608.468 318.623 591.958 298.253 591.958" fill="#FFA42F"/>
<path d="M350.228 788.122C346.53 781.314 345.861 774.133 351.048 766.894C362.626 750.768 388.61 743.693 411.616 740.363C490.055 729.009 583.652 772.719 589.659 822.106C595.665 871.493 541.371 913.496 497.852 913.496C454.333 913.496 414.327 855.598 407.149 842.54C400.473 830.381 387.188 822.573 375.325 813.345C366.173 806.211 355.314 797.524 350.228 788.122" fill="#FFA42F"/>
<path d="M589.652 822.107C583.65 772.718 490.052 729.009 411.619 740.364C388.612 743.692 362.63 750.77 351.059 766.895C350.976 767.022 350.876 767.149 350.792 767.274C362.145 762.527 375.337 759.67 387.643 757.888C466.076 746.533 559.673 790.242 565.676 839.629C568.552 863.298 557.583 885.273 540.596 901.739C569.939 885.872 593.732 855.696 589.652 822.107" fill="#FF7A03"/>
<path d="M522.098 851.91C522.098 864.769 507.853 875.193 490.254 875.193C472.671 875.193 458.409 864.769 458.409 851.91C458.409 839.055 472.671 828.631 490.254 828.631C507.853 828.631 522.098 839.055 522.098 851.91Z" fill="#FEE2BF"/>
<path d="M509.667 851.907C509.667 859.741 500.981 866.092 490.27 866.092C479.543 866.092 470.858 859.741 470.858 851.907C470.858 844.074 479.543 837.723 490.27 837.723C500.981 837.723 509.667 844.074 509.667 851.907Z" fill="#FF7A03"/>
<path d="M519.577 872.263C519.577 875.672 516.243 878.438 512.144 878.438C508.046 878.438 504.728 875.672 504.728 872.263C504.728 868.856 508.046 866.091 512.144 866.091C516.243 866.091 519.577 868.856 519.577 872.263Z" fill="#FEE2BF"/>
<path d="M450.443 775.84C450.443 775.84 399.974 786.341 394.541 813.872C394.541 813.872 422.104 783.504 450.443 775.84Z" fill="#FEE2BF"/>
<path d="M479.718 786.061C479.718 786.061 410.35 805.24 417.046 835.73C417.046 835.73 442.999 799.683 479.718 786.061Z" fill="#FEE2BF"/>
<path d="M222.956 900.903C208.943 933.812 176.173 904.465 176.173 904.465C176.173 904.465 178.443 931.146 145.058 931.146C111.673 931.146 132.729 892.006 132.729 892.006C132.729 892.006 98.4801 902.679 105.67 860.4C112.859 818.12 159.774 845.712 159.774 845.712C159.774 845.712 166.905 817.282 196.512 828.258C226.119 839.236 202.413 862.919 202.413 862.919C202.413 862.919 236.969 867.988 222.956 900.903V900.903ZM211.799 858.974C211.799 858.974 241.538 829.277 204.39 815.513C167.256 801.748 158.324 837.398 158.324 837.398C158.324 837.398 99.5051 802.798 90.4853 855.818C81.4801 908.838 124.412 895.45 124.412 895.45C124.412 895.45 98.0116 944.532 139.875 944.532C181.723 944.532 178.897 911.065 178.897 911.065C178.897 911.065 219.984 947.879 237.555 906.612C255.126 865.333 211.799 858.974 211.799 858.974" fill="#FFA42F"/>
<path d="M605.641 583.512C605.641 583.512 595.549 536.76 568.982 541.126C542.399 545.509 549.452 566.022 557.865 566.022C566.278 566.022 564.062 551.101 577.949 555.703C591.837 560.302 599.915 583.512 599.915 583.512H605.641Z" fill="#2BA14C"/>
<path d="M575.68 602.019C575.68 602.019 553.817 595.289 541.049 615.137C528.263 634.983 543.725 680.058 578.041 707.979C612.357 735.897 634.902 748.679 644.312 744.307C653.722 739.934 652.043 733.879 652.043 733.879C652.043 733.879 685.03 748.344 687.373 716.724C687.373 716.724 711.93 731.525 715.62 697.887C719.328 664.248 696.451 549.878 652.725 555.934C652.725 555.934 631.177 555.598 626.297 578.136C626.297 578.136 582.763 553.915 575.68 602.019" fill="#FC008B"/>
<path d="M569.622 612.787C564.028 609.011 547.689 608.078 550.247 631.624C552.806 655.17 624.112 735.565 636.221 732.202C648.347 728.839 597.967 631.892 569.622 612.787Z" fill="#FCC13F"/>
<path d="M617.297 589.57C612.762 584.796 596.211 577.461 591.505 594.953C586.798 612.445 657.76 737.916 668.191 724.123C678.622 710.333 642.054 615.649 617.297 589.57" fill="#FCC13F"/>
<path d="M663.824 573.426C660.363 569.137 648.485 563.035 641.946 570.734C627.841 587.386 686.346 722.781 694.763 707.979C703.18 693.178 685.459 600.315 663.824 573.426" fill="#FCC13F"/>
<path d="M374.312 919.906C374.312 919.906 370.345 930.692 320.396 948.292C264.682 967.92 238.639 971.56 222.173 1024.93C222.173 1024.93 247.817 1018.68 276.12 1016.41C329.328 1012.16 368.777 967.173 374.312 919.906Z" fill="#2BA14C"/>
<path d="M374.314 919.199C374.314 919.199 379.311 926.572 386.528 972.412C398.153 1046.49 344.795 1076.01 305.638 1061.82C305.638 1061.82 347.915 1039.97 354.479 1005.62C360.362 974.797 374.314 919.199 374.314 919.199Z" fill="#2BA14C"/>
<path d="M321.521 978.948C321.521 988.508 313.756 996.254 304.199 996.254C294.642 996.254 286.892 988.508 286.892 978.948C286.892 969.387 294.642 961.627 304.199 961.627C313.756 961.627 321.521 969.387 321.521 978.948Z" fill="#FEE2BF"/>
<path d="M288.596 991.716C288.596 998.303 283.265 1003.64 276.673 1003.64C270.095 1003.64 264.75 998.303 264.75 991.716C264.75 985.13 270.095 979.797 276.673 979.797C283.265 979.797 288.596 985.13 288.596 991.716Z" fill="#FEE2BF"/>
<path d="M264.406 1001.93C264.406 1008.52 259.055 1013.85 252.485 1013.85C245.899 1013.85 240.563 1008.52 240.563 1001.93C240.563 995.346 245.899 990.013 252.485 990.013C259.055 990.013 264.406 995.346 264.406 1001.93Z" fill="#FEE2BF"/>
<path d="M345.363 963.613C345.363 970.201 340.029 975.533 333.449 975.533C326.854 975.533 321.52 970.201 321.52 963.613C321.52 957.04 326.854 951.694 333.449 951.694C340.029 951.694 345.363 957.04 345.363 963.613Z" fill="#FEE2BF"/>
<path d="M309.309 963.61C333.494 960.064 359.614 935.344 369.834 924.73C363.957 929.517 350.575 937.664 320.389 948.291C264.682 967.918 238.655 971.558 222.188 1024.93C222.188 1024.93 278.386 968.157 309.309 963.61Z" fill="#8CD334"/>
<path d="M373.985 922.489C368.405 945.196 295.205 994.569 269.258 1001.05C242.311 1007.78 222.189 1024.93 222.189 1024.93C222.189 1024.93 247.829 1018.68 276.113 1016.41C328.362 1012.22 367.345 968.782 373.985 922.489Z" fill="#8CD334"/>
<path d="M374.225 918.906C374.225 918.906 354.494 918.345 358.477 924.439C362.445 930.545 370.596 924.092 370.596 924.092C370.596 924.092 364.282 927.706 365.208 932.892C366.135 938.066 371.986 935.666 373.314 932.892C374.642 930.119 374.225 927.413 374.225 927.413C374.225 927.413 374.317 935.226 378.038 935.932C381.743 936.653 378.038 926.571 378.038 926.571C378.038 926.571 381.11 930.905 383.025 928.986C384.939 927.065 374.225 918.906 374.225 918.906Z" fill="#7271B3"/>
<path d="M373.309 923.029C375.034 919.015 375.403 914.589 375.434 910.255C375.511 898.609 372.555 895.979 375.588 895.397C376.512 895.22 377.405 895.827 377.59 896.752C377.975 898.788 378.267 914.629 373.309 923.029Z" fill="#7271B3"/>
<path d="M360.124 1033.72C361.011 1038.74 360.261 1044.45 357.356 1048.65C352.325 1055.64 338.913 1056.34 333.454 1052.6C336.436 1053.77 340.076 1053.84 343.256 1053.49C353.41 1052.04 356.377 1048.74 358.35 1043.48C359.497 1040.42 360.017 1037.09 360.124 1033.72" fill="#8CD334"/>
<path d="M372.047 998.528C386.134 1009.78 379.6 1033.18 360.138 1033.71C378.411 1029.86 383.261 1011.39 372.047 998.528Z" fill="#8CD334"/>
<path d="M374.297 965.75C385.792 972.444 384.402 984.391 384.417 984.47C384.417 984.47 384.402 985.204 383.954 987.137C383.737 987.644 381.991 995.457 372.041 998.537C386.982 990.244 385.113 975.483 374.297 965.75Z" fill="#8CD334"/>
<path d="M1509.15 550.908C1503.59 548.523 1500.4 543.565 1502 539.836C1503.62 536.105 1509.39 535.017 1514.94 537.404C1520.5 539.789 1523.69 544.749 1522.09 548.478C1520.5 552.207 1514.7 553.295 1509.15 550.908V550.908ZM1520.07 525.53C1524 527.222 1526.34 530.553 1525.28 532.972C1524.25 535.39 1520.23 535.977 1516.29 534.284C1512.36 532.594 1510 529.261 1511.06 526.845C1512.09 524.426 1516.14 523.837 1520.07 525.53V525.53ZM1522.36 520.187C1515.01 517.034 1505.44 522.945 1500.96 533.388C1496.47 543.832 1498.76 554.852 1506.09 558.006C1513.42 561.157 1522.99 555.248 1527.49 544.803C1531.98 534.361 1529.69 523.339 1522.36 520.187" fill="#7271B3"/>
<path d="M1474.35 549.095C1468.98 553.924 1464.73 559.838 1461.89 566.456L1402.34 704.896C1398.72 713.257 1402.66 722.981 1411.12 726.613L1490.27 760.667C1498.71 764.3 1508.47 760.467 1512.08 752.106L1571.63 613.666C1574.47 607.047 1575.84 599.889 1575.66 592.679L1474.35 549.095" fill="#7F1CA0"/>
<path d="M1474.35 549.095C1468.98 553.924 1464.73 559.838 1461.89 566.456L1402.34 704.896C1398.72 713.257 1402.66 722.981 1411.12 726.613L1490.27 760.667C1498.71 764.3 1508.47 760.467 1512.08 752.106L1571.63 613.666C1574.47 607.047 1575.84 599.889 1575.66 592.679L1474.35 549.095" fill="#7F1CA0"/>
<path d="M1571.63 613.666L1512.08 752.118C1508.49 760.47 1498.71 764.307 1490.27 760.677L1411.12 726.625C1402.66 722.988 1398.75 713.26 1402.34 704.906L1461.89 566.456C1464.73 559.849 1468.98 553.931 1474.35 549.104L1575.66 592.684C1575.84 599.896 1574.47 607.059 1571.63 613.666" fill="#FC008B"/>
<path d="M1423.31 713.932L1482.86 575.491C1485.7 568.873 1489.95 562.959 1495.32 558.133L1474.33 549.103C1468.97 553.932 1464.72 559.844 1461.87 566.463L1402.31 704.903C1398.73 713.263 1402.64 722.989 1411.1 726.62L1432.1 735.649C1423.65 732.016 1419.71 722.294 1423.31 713.932Z" fill="#FCC13F"/>
<path d="M1571.63 613.666L1512.08 752.118C1508.49 760.47 1498.71 764.307 1490.27 760.677L1457.93 746.754C1466.44 750.421 1476.28 746.616 1479.88 738.264L1539.45 599.81C1542.29 593.205 1543.61 586.033 1543.4 578.814L1575.66 592.684C1575.84 599.896 1574.47 607.059 1571.63 613.666" fill="#D6007E"/>
<path d="M1575.64 592.688L1474.31 549.099C1476.22 544.673 1481.39 542.646 1485.87 544.566L1571 581.189C1575.48 583.114 1577.56 588.262 1575.64 592.688" fill="#352E73"/>
<path d="M1523.83 724.784L1414.08 677.573L1406.68 694.776L1516.43 741.987L1523.83 724.784Z" fill="#352E73"/>
<path d="M1575.27 984.624L1525.81 1022.75L1439.21 910.384L1488.67 872.269L1575.27 984.624Z" fill="#ADEFF7"/>
<path d="M1479.94 849.74L1475.05 850.038L1474.56 852.73L1471.3 852.928L1470.81 855.619L1467.54 855.817L1467.06 858.509L1463.79 858.707L1463.3 861.399L1460.06 861.598L1459.55 864.288L1456.31 864.486L1455.82 867.178L1452.55 867.375L1452.06 870.067L1448.8 870.267L1448.31 872.959L1445.05 873.157L1444.56 875.849L1441.31 876.046L1440.8 878.738L1437.54 878.936L1437.07 881.625L1433.81 881.828L1433.3 884.517L1430.05 884.715L1429.56 887.407L1426.3 887.604L1425.81 890.296L1422.57 890.496L1422.06 893.186L1418.79 893.386L1418.02 897.739L1417.82 897.883L1417.97 897.926L1417.95 898.05L1418.35 898.025L1432.67 901.93L1439.2 910.388L1488.67 872.273L1482.14 863.808L1480.07 849.907L1479.89 850.051L1479.94 849.74" fill="#352E73"/>
<path d="M1594.61 998.535L1581.37 992.548L1575.27 984.626L1525.8 1022.75L1531.9 1030.67L1532.34 1045.95L1532.22 1046.33L1532.36 1046.35L1532.38 1046.51L1532.54 1046.36L1537.05 1046.81L1538.01 1043.64L1540.79 1043.92L1541.78 1040.75L1544.54 1041.03L1545.53 1037.87L1548.29 1038.15L1549.28 1034.97L1552.04 1035.25L1553 1032.08L1555.79 1032.36L1556.77 1029.19L1559.54 1029.47L1560.52 1026.31L1563.29 1026.59L1564.27 1023.41L1567.04 1023.69L1568.02 1020.52L1570.79 1020.8L1571.77 1017.64L1574.54 1017.91L1575.52 1014.75L1578.29 1015.03L1579.27 1011.85L1582.04 1012.13L1583.02 1008.96L1585.79 1009.24L1586.77 1006.08L1589.56 1006.35L1590.52 1003.19L1593.28 1003.47L1594.75 998.706L1594.43 998.668L1594.61 998.535" fill="#352E73"/>
<path d="M1555.02 979.985L1526.45 1002.01L1459.23 914.772L1487.8 892.754L1555.02 979.985Z" fill="#FEE2BF"/>
<path d="M1439.2 910.387L1459.22 914.774L1487.78 892.755L1488.67 872.272L1439.2 910.387" fill="#7271B3"/>
<path d="M1525.81 1022.75L1526.47 1002.01L1555.01 979.985L1575.27 984.624L1525.81 1022.75Z" fill="#7271B3"/>
<path d="M1284.2 205.353C1287.32 193.07 1290.98 180.873 1303.88 175.586C1315.03 171.012 1328.29 175.767 1335.65 184.931C1356.9 211.483 1314.06 260.313 1287.97 282.488C1280.61 288.752 1270.12 293.733 1266.36 302.879C1267.13 301.534 1267.91 300.186 1268.7 298.841C1267.56 300.137 1266.44 301.437 1265.3 302.729C1260.44 308.244 1265.02 317.944 1272.82 315.629C1282.85 312.644 1283.3 313.649 1300.28 299.741C1308.2 293.253 1315.67 286.222 1322.65 278.714C1336.77 263.497 1349.99 246.283 1357.71 226.872C1377.17 177.913 1334.06 142.496 1298.5 155.304C1279.62 162.104 1260.87 184.192 1267.22 205.353C1269.65 213.474 1282.01 213.987 1284.2 205.353Z" fill="#FC008B"/>
<path d="M1271.36 374.345C1284.98 374.345 1285 353.172 1271.36 353.172C1257.73 353.172 1257.71 374.345 1271.36 374.345Z" fill="#FC008B"/>
<path d="M1137.52 90.8323C1129.51 69.294 1135.38 41.8098 1155.13 28.4211C1174.36 15.4067 1201.94 19.5022 1217.93 35.8639C1238.66 57.0695 1235.15 95.115 1226.75 120.936C1222.13 135.073 1214.9 148.649 1205.33 160.069C1194.92 172.562 1182.26 182.894 1170.32 193.846C1145.58 216.497 1117.43 252.598 1134.32 287.65C1138.6 296.567 1151.09 289.943 1149.43 281.284C1139.16 228.043 1201.11 203.777 1229.91 160.489C1239.24 146.424 1246.08 130.354 1249.84 113.867C1257.14 81.7263 1255.52 40.3754 1228.47 17.4441C1206.04 -1.5786 1171.28 -6.50576 1145.98 10.0014C1117.93 28.3173 1105.85 67.4437 1121.7 97.5058C1126.19 106.03 1140.97 100.146 1137.52 90.8323" fill="#FC008B"/>
<path d="M1179.01 341.511C1179.01 351.953 1170.52 360.42 1160.08 360.42C1149.64 360.42 1141.19 351.953 1141.19 341.511C1141.19 331.068 1149.64 322.602 1160.08 322.602C1170.52 322.602 1179.01 331.068 1179.01 341.511Z" fill="#FC008B"/>
<path d="M1690.96 1022.84C1684.27 1032.73 1674.49 1037.82 1669.16 1034.21C1663.8 1030.6 1664.88 1019.64 1671.58 1009.73C1678.25 999.838 1688.03 994.746 1693.38 998.358C1698.74 1001.99 1697.66 1012.95 1690.96 1022.84Z" fill="#FC008B"/>
<path d="M1802.08 1051.72C1802.08 1061.83 1793.88 1070.04 1783.74 1070.04C1773.63 1070.04 1765.42 1061.83 1765.42 1051.72C1765.42 1041.58 1773.63 1033.38 1783.74 1033.38C1793.88 1033.38 1802.08 1041.58 1802.08 1051.72Z" fill="#FCC13F"/>
<path d="M1898.84 1027.65C1898.84 1037.77 1890.63 1045.98 1880.52 1045.98C1870.38 1045.98 1862.19 1037.77 1862.19 1027.65C1862.19 1017.53 1870.38 1009.33 1880.52 1009.33C1890.63 1009.33 1898.84 1017.53 1898.84 1027.65Z" fill="#8CD334"/>
<path d="M1720.24 1077.71C1716.99 1082.49 1707.09 1081.46 1698.1 1075.39C1689.11 1069.31 1684.48 1060.51 1687.72 1055.72C1690.96 1050.93 1700.84 1051.97 1709.83 1058.04C1718.79 1064.12 1723.45 1072.92 1720.24 1077.71Z" fill="#7271B3"/>
<path d="M1757.64 999.547C1757.64 1007.28 1751.36 1013.55 1743.63 1013.55C1735.9 1013.55 1729.63 1007.28 1729.63 999.547C1729.63 991.813 1735.9 985.533 1743.63 985.533C1751.36 985.533 1757.64 991.813 1757.64 999.547Z" fill="#8CD334"/>
<path d="M1676.33 857.855C1676.33 862.345 1667.99 865.982 1657.69 865.982C1647.39 865.982 1639.03 862.345 1639.03 857.855C1639.03 853.367 1647.39 849.73 1657.69 849.73C1667.99 849.73 1676.33 853.367 1676.33 857.855Z" fill="#FC008B"/>
<path d="M1605.77 784.527C1605.77 789.56 1596.87 793.639 1585.91 793.639C1574.93 793.639 1566.03 789.56 1566.03 784.527C1566.03 779.494 1574.93 775.417 1585.91 775.417C1596.87 775.417 1605.77 779.494 1605.77 784.527Z" fill="#FCC13F"/>
<path d="M1287.81 481.6C1262.91 441.562 1219.05 411.555 1170.37 411.459C1082.59 411.289 1030.45 453.149 1001.59 500.427C1000.68 501.947 999.742 503.483 998.783 505.029C932.245 614.564 895.763 692.072 778.65 740.056C503.914 852.631 566.358 1155.31 737.202 1265.77C1008.28 1441.05 1180.34 1268.17 1273.78 1060.13C1418.58 737.856 1305.45 509.967 1287.81 481.6Z" fill="#2D2861"/>
<path d="M986.828 1474.2C986.828 1474.2 921.432 1585.01 895.893 1684.49C878.234 1753.24 869.35 1960.45 869.35 1960.45H1426.36C1426.36 1960.45 1364.19 1546.05 1247.41 1493C1130.63 1439.95 986.828 1474.2 986.828 1474.2" fill="#FC008B"/>
<path d="M1314.03 902.402C1233.16 894.81 1014.09 914.636 914.732 930.702C900.529 932.996 983.615 1425.92 960.891 1512.56L914.646 1607.28C914.646 1607.28 1193.19 1667.1 1333.2 1591.42L1254.93 1472.02C1268.9 1408.16 1376.07 908.223 1314.03 902.402Z" fill="#FCC13F"/>
<path d="M1050.15 774.485C1050.15 774.485 1038.06 1068.65 1107.96 1074.69C1177.84 1080.73 1179.49 901.457 1180.38 879.448L1185.25 759.618L1050.15 774.485Z" fill="#F7A491"/>
<path d="M1049.41 837.031C1049.41 837.023 1049.41 837.015 1049.41 837.007C1049.41 837.015 1049.41 837.023 1049.41 837.031ZM1049.41 836.633C1049.41 836.617 1049.41 836.597 1049.41 836.582C1049.41 836.596 1049.41 836.617 1049.41 836.633ZM1049.41 836.437C1049.41 836.338 1049.41 836.236 1049.41 836.137C1049.41 836.24 1049.41 836.332 1049.41 836.437ZM1049.41 836.113C1049.41 835.879 1049.41 835.649 1049.41 835.416C1049.41 835.649 1049.41 835.881 1049.41 836.113ZM1049.41 835.403C1049.41 835.288 1049.41 835.169 1049.41 835.055C1049.41 835.174 1049.41 835.284 1049.41 835.403ZM1049.41 835.05C1049.18 805.155 1049.86 782.73 1050.09 776.335C1049.86 782.73 1049.18 805.155 1049.41 835.05ZM1050.09 776.314C1050.09 776.269 1050.09 776.226 1050.09 776.181C1050.09 776.226 1050.09 776.269 1050.09 776.314ZM1050.09 776.167C1050.09 776.121 1050.09 776.074 1050.09 776.029C1050.09 776.074 1050.09 776.121 1050.09 776.167ZM1050.09 775.935C1050.09 775.933 1050.09 775.931 1050.09 775.927C1050.09 775.931 1050.09 775.931 1050.09 775.935ZM1050.09 775.877C1050.09 775.869 1050.09 775.859 1050.09 775.853C1050.09 775.859 1050.09 775.869 1050.09 775.877ZM1050.09 775.8C1050.11 775.795 1050.11 775.789 1050.11 775.783C1050.11 775.789 1050.11 775.793 1050.09 775.8ZM1050.11 775.502C1050.11 775.494 1050.11 775.488 1050.11 775.48C1050.11 775.488 1050.11 775.494 1050.11 775.502ZM1050.11 775.451C1050.11 775.441 1050.13 775.432 1050.13 775.42C1050.13 775.432 1050.11 775.441 1050.11 775.451ZM1050.13 775.391C1050.13 775.352 1050.13 775.312 1050.13 775.275C1050.13 775.314 1050.13 775.35 1050.13 775.391ZM1050.13 775.238C1050.13 775.23 1050.13 775.225 1050.13 775.221C1050.13 775.225 1050.13 775.23 1050.13 775.238ZM1050.13 775.186C1050.13 775.186 1050.13 775.186 1050.13 775.184C1050.13 775.186 1050.13 775.184 1050.13 775.186ZM1050.13 775.135C1050.13 775.133 1050.13 775.131 1050.13 775.129C1050.13 775.131 1050.13 775.131 1050.13 775.135ZM1050.13 774.979C1050.13 774.973 1050.13 774.967 1050.13 774.961C1050.13 774.967 1050.13 774.973 1050.13 774.979ZM1050.13 774.889C1050.13 774.887 1050.13 774.887 1050.13 774.885C1050.13 774.885 1050.13 774.887 1050.13 774.889ZM1050.13 774.762C1050.13 774.737 1050.15 774.711 1050.15 774.69C1050.15 774.711 1050.13 774.737 1050.13 774.762ZM1050.15 774.651C1050.15 774.645 1050.15 774.641 1050.15 774.633C1050.15 774.641 1050.15 774.645 1050.15 774.651ZM1050.15 774.614C1050.15 774.608 1050.15 774.602 1050.15 774.598C1050.15 774.602 1050.15 774.608 1050.15 774.614ZM1050.15 774.543C1050.15 774.541 1050.15 774.539 1050.15 774.536C1050.15 774.539 1050.15 774.539 1050.15 774.543ZM1050.15 774.522C1050.15 774.518 1050.15 774.514 1050.15 774.508C1050.15 774.514 1050.15 774.518 1050.15 774.522ZM1050.15 774.502C1050.15 774.498 1050.15 774.497 1050.15 774.497C1050.15 774.497 1050.15 774.498 1050.15 774.502Z" fill="#2C1D41"/>
<path d="M1124.49 874.392C1099.66 874.39 1071.97 863.413 1049.42 837.031C1049.42 837.023 1049.42 837.015 1049.42 837.007C1049.42 836.883 1049.42 836.756 1049.42 836.632C1049.42 836.616 1049.42 836.596 1049.42 836.581C1049.42 836.531 1049.42 836.486 1049.42 836.437C1049.42 836.331 1049.42 836.24 1049.42 836.136C1049.42 836.128 1049.42 836.12 1049.42 836.114C1049.42 835.879 1049.4 835.647 1049.4 835.416C1049.4 835.411 1049.4 835.405 1049.4 835.401C1049.4 835.281 1049.4 835.173 1049.4 835.053C1049.4 835.051 1049.4 835.051 1049.4 835.049C1049.18 805.155 1049.87 782.73 1050.09 776.335C1050.09 776.327 1050.09 776.321 1050.09 776.314C1050.09 776.268 1050.09 776.225 1050.09 776.18C1050.09 776.176 1050.09 776.172 1050.11 776.168C1050.11 776.121 1050.11 776.074 1050.11 776.028C1050.11 775.997 1050.11 775.967 1050.11 775.936C1050.11 775.932 1050.11 775.93 1050.11 775.926C1050.11 775.909 1050.11 775.891 1050.11 775.875C1050.11 775.867 1050.11 775.859 1050.11 775.853C1050.11 775.834 1050.11 775.818 1050.11 775.8C1050.11 775.794 1050.11 775.789 1050.11 775.781C1050.11 775.684 1050.11 775.59 1050.11 775.503C1050.11 775.492 1050.11 775.488 1050.11 775.48C1050.11 775.47 1050.11 775.46 1050.11 775.45C1050.11 775.441 1050.13 775.429 1050.13 775.419C1050.13 775.409 1050.13 775.399 1050.13 775.389C1050.13 775.348 1050.13 775.313 1050.13 775.275C1050.13 775.262 1050.13 775.25 1050.13 775.236C1050.13 775.23 1050.13 775.226 1050.13 775.22C1050.13 775.208 1050.13 775.195 1050.13 775.185C1050.13 775.183 1050.13 775.185 1050.13 775.183C1050.13 775.167 1050.13 775.151 1050.13 775.134C1050.13 775.13 1050.13 775.13 1050.13 775.128C1050.13 775.075 1050.13 775.024 1050.13 774.978C1050.13 774.971 1050.13 774.965 1050.13 774.961C1050.13 774.935 1050.13 774.91 1050.13 774.888C1050.13 774.886 1050.13 774.884 1050.13 774.884C1050.13 774.839 1050.13 774.798 1050.13 774.76C1050.13 774.735 1050.15 774.711 1050.15 774.691C1050.15 774.676 1050.15 774.664 1050.15 774.65C1050.15 774.644 1050.15 774.64 1050.15 774.634C1050.15 774.626 1050.15 774.619 1050.15 774.613C1050.15 774.607 1050.15 774.601 1050.15 774.597C1050.15 774.577 1050.15 774.558 1050.15 774.542C1050.15 774.54 1050.15 774.538 1050.15 774.536C1050.15 774.532 1050.15 774.526 1050.15 774.522C1050.15 774.516 1050.15 774.514 1050.15 774.508C1050.15 774.505 1050.15 774.501 1050.15 774.501C1050.15 774.497 1050.15 774.497 1050.15 774.495C1050.15 774.493 1050.15 774.489 1050.15 774.489C1050.15 774.485 1050.15 774.485 1050.15 774.485L1185.25 759.618L1181.71 847.045C1170.33 863.896 1148.78 874.394 1124.49 874.392" fill="#F17761"/>
<path d="M1319.57 1542.31C1354.11 1531.16 1481.08 943.134 1304.92 901.819C1304.92 901.819 1308.98 914.773 1302.89 1023.11C1295.79 1149.4 1258.51 1427.71 1258.51 1427.71C1258.51 1427.71 1099.6 1388.11 974.441 1402.16L869.34 1463.32L853.316 1531.64C853.316 1531.64 891.349 1569.68 899.306 1569.68C907.24 1569.68 886.229 1536.19 886.229 1536.19C886.229 1536.19 905.822 1555.77 910.654 1550.95C915.485 1546.12 901.832 1519.72 901.832 1519.72L977.632 1479.41C977.632 1479.41 1285.07 1553.45 1319.57 1542.31" fill="#F7A491"/>
<path d="M1304.69 901.69C1304.69 901.69 1299.52 902.879 1298.21 1023.11C1297.53 1087.77 1287.34 1192.05 1277.2 1278.56C1316.25 1276.24 1371.38 1278.45 1409.29 1283.85C1438.31 1103.29 1422.21 905.599 1304.69 901.69Z" fill="#FFA42F"/>
<path d="M826.08 1055.98C824.592 1178.65 839.699 1365.32 918.041 1471.1C938.509 1498.74 977.651 1419.53 977.651 1419.53C977.651 1419.53 947.341 925.595 914.589 930.73C884.564 935.423 827.3 955.023 826.08 1055.98Z" fill="#F48C7F"/>
<path d="M969.827 1307.96C958.734 1162.6 937.252 927.174 914.591 930.734C884.566 935.428 816.22 955.028 815.002 1055.99C814.013 1137.05 820.387 1250.29 847.368 1345.45C871.78 1331.43 908.007 1314.2 936.757 1312.24C947.926 1311.65 958.905 1309.95 969.827 1307.96" fill="#FFA42F"/>
<path d="M1055.62 803.886C1055.62 803.886 1051.93 814.672 1049.36 829.146C1046.84 843.624 1052.48 857.815 1041.42 872.004C1030.36 886.197 1070.91 971.09 1070.91 971.09C1070.91 971.09 1079.46 939.836 1075.77 912.875C1072.08 885.913 1076.76 819.355 1082.31 813.819C1087.84 808.285 1055.62 803.886 1055.62 803.886" fill="#F48C7F"/>
<path d="M1016.74 743.056L986.862 775.414L965.643 804.649C965.643 804.649 970.758 857.727 967.912 867.093C965.085 876.46 966.499 882.987 969.902 895.191C973.306 907.395 995.461 967.569 996.874 990.555C996.874 990.555 956.128 1116.73 946.772 1138.86C937.397 1161.01 896.81 1314.68 888.45 1355.57C882.836 1382.92 906.564 1474.33 932.799 1485.66C958.377 1496.72 988.713 1500.42 1013.61 1355.57C1019.9 1318.93 1062.14 1032.85 1062.14 1020.93C1062.14 1009.01 1074.01 995.942 1074.92 971.088C1076 941.755 1046.84 908.527 1046.84 908.527L1065.99 877.451L1083.02 875.325C1083.02 875.325 1101.54 893.845 1106.85 888.523C1112.17 883.2 1097.08 865.958 1097.08 865.958C1097.08 865.958 1103.01 873.052 1107.99 868.086C1112.96 863.119 1085.13 831.472 1085.13 831.472L1042.99 811.887L1034.48 813.165L998.088 847.225L996.158 807.203L1011.48 778.679C1011.48 778.679 1039.87 748.733 1016.74 743.056Z" fill="#F79C8D"/>
<path d="M1093.64 864.259C1092.3 863.687 1090.97 863.076 1089.66 862.453C1088.34 861.845 1087.05 861.178 1085.77 860.543C1084.44 859.912 1083.17 859.217 1081.89 858.558C1080.6 857.902 1079.32 857.217 1078.05 856.518L1078.88 856.752C1076.29 856.896 1073.68 857.023 1071.08 857.106C1068.47 857.185 1065.86 857.243 1063.27 857.274L1064.59 856.811C1059.11 861.325 1053.51 865.696 1047.8 869.912C1044.91 871.996 1042.04 874.075 1039.09 876.076C1036.12 878.07 1033.15 880.045 1030.07 881.857C1032.5 879.224 1035.07 876.752 1037.66 874.301C1040.24 871.851 1042.89 869.487 1045.54 867.122C1050.9 862.447 1056.38 857.925 1061.96 853.542L1062.56 853.072L1063.27 853.08C1065.86 853.113 1068.47 853.171 1071.08 853.25C1073.68 853.331 1076.29 853.459 1078.88 853.604L1079.39 853.634L1079.71 853.837C1080.9 854.653 1082.09 855.484 1083.25 856.338C1084.42 857.193 1085.61 858.014 1086.78 858.895C1087.92 859.773 1089.09 860.62 1090.24 861.529C1091.39 862.417 1092.51 863.321 1093.64 864.259" fill="#F47458"/>
<path d="M1093.64 859.435C1092.34 857.945 1091.09 856.418 1089.86 854.89L1086.2 850.254L1082.62 845.563L1079.16 840.816L1080.07 841.508C1077.69 840.885 1075.34 840.183 1072.98 839.524C1070.61 838.871 1068.25 838.158 1065.9 837.458C1061.21 836.023 1056.54 834.555 1051.89 833.004L1053.67 832.725L1046.57 837.434L1039.41 842.021C1036.97 843.499 1034.58 845.012 1032.1 846.437C1029.67 847.893 1027.2 849.29 1024.66 850.636C1026.78 848.717 1028.94 846.851 1031.13 845.042C1033.31 843.204 1035.53 841.453 1037.74 839.666L1044.49 834.46L1051.32 829.379L1052.09 828.801L1053.1 829.1C1057.81 830.481 1062.5 831.947 1067.17 833.445C1069.5 834.211 1071.84 834.967 1074.15 835.78C1076.47 836.585 1078.8 837.351 1081.12 838.194L1081.77 838.431L1082.03 838.888L1085.07 843.932L1088.02 849.033L1090.91 854.19C1091.82 855.925 1092.77 857.66 1093.64 859.435Z" fill="#F47458"/>
<path d="M1024.55 522.879C1024.55 522.879 1006.15 564.288 1006.15 650.553C1006.15 736.821 1026.86 786.281 1067.12 815.035C1107.37 843.79 1153.79 830.982 1176.39 815.035C1217.18 786.241 1256.9 679.31 1245.41 603.395C1233.89 527.482 1199.38 377.953 1024.55 522.879Z" fill="#F7A491"/>
<path d="M1085.53 436.038C1081.48 436.038 1028.59 456.742 1003.29 510.8C977.984 564.861 1003.29 638.476 1003.29 638.476C1003.29 638.476 1022.52 590.165 1038.77 586.141C1055.05 582.115 1117.16 602.243 1141.87 577.513C1166.61 552.783 1197.09 501.598 1197.09 501.598C1197.09 501.598 1191.06 566.874 1172.35 585.565C1153.67 604.256 1228.7 614.895 1246.82 591.891C1264.96 568.887 1273.59 663.78 1273.59 663.78C1273.59 663.78 1282.79 541.857 1224.7 479.17C1166.61 416.481 1085.53 436.038 1085.53 436.038Z" fill="#2D2861"/>
<path d="M829.45 292.142C829.45 292.142 878.329 335.093 850.945 391.268C823.56 447.453 731.304 498.415 714.685 496.975C701.094 495.795 691.953 487.886 683.016 478.326C675.297 470.048 682.148 472.267 696.699 434.379C711.269 396.492 723.308 400.819 731.544 359.025C739.798 317.237 795.418 264.351 829.45 292.142" fill="#2BA14C"/>
<path d="M713.421 477.34C706.008 481.677 697.19 482.734 688.884 480.553L688.756 480.522C677.82 477.723 668.673 468.096 683.242 430.21C697.793 392.318 706.702 389.872 714.954 348.082C723.188 306.293 795.156 263.39 829.168 291.176C829.168 291.176 831.651 293.349 833.568 296.233C841.601 316.663 844.23 342.989 828.784 372.528C807.497 413.235 755.666 452.635 713.421 477.34Z" fill="#8CD334"/>
<path d="M831.86 311.226C829.36 300.387 820.784 291.957 809.89 290.023C776.717 284.075 727.25 317.357 720.937 349.271C715.608 376.295 710.007 387.407 702.89 401.475C695.792 415.531 664.791 470.502 693.256 477.087C708.638 480.643 726.666 462.267 738.271 454.372C749.621 446.64 760.66 438.416 771.17 429.583C781.644 420.806 795.439 410.581 802.811 398.921C808.084 390.6 842.644 358.121 831.86 311.226" fill="#FEE2BF"/>
<path d="M740.635 349.677C726.124 373.296 727.516 400.582 743.743 410.612C759.971 420.641 784.89 409.636 799.401 386.018C813.912 362.399 812.52 335.112 796.293 325.083C780.065 315.054 755.146 326.059 740.635 349.677Z" fill="#FF7A03"/>
<path d="M782.82 595.564C778.218 612.643 758.268 621.23 738.283 614.745C718.297 608.26 705.833 589.158 710.435 572.079C715.056 555.001 735.005 546.413 754.991 552.897C774.977 559.382 787.441 578.485 782.82 595.564" fill="#2BA14C"/>
<path d="M779.356 591.929C779.356 597.042 775.588 601.185 770.909 601.185C766.248 601.185 762.479 597.042 762.479 591.929C762.479 586.818 766.248 582.673 770.909 582.673C775.588 582.673 779.356 586.818 779.356 591.929Z" fill="#8CD334"/>
<path d="M856.177 509.997C856.177 509.997 864.616 526.309 882.488 523.95C900.36 521.591 908.499 476.631 913.6 464.057C918.719 451.485 925.208 451.561 925.208 451.561C925.208 451.561 865.347 428.358 840.011 464.374C824.896 485.861 836.898 500.551 856.177 509.997Z" fill="#8CD334"/>
<path d="M901.318 472.694C897.692 475.114 888.367 480.624 883.246 481.072C893.282 471.696 904.458 462.858 914.624 455.297C908.663 458.723 901.243 463.4 893.581 468.803C890.142 464.039 896.87 454.955 896.964 454.86C897.431 454.241 896.459 453.512 895.992 454.133C895.693 454.547 888.666 464.015 892.628 469.483C889.17 471.943 885.694 474.542 882.274 477.235C876.163 468.682 883.938 454.228 884.012 454.077C884.162 453.791 884.069 453.43 883.77 453.267C883.489 453.103 883.134 453.204 882.966 453.49C882.611 454.136 874.724 468.84 881.359 477.968C877.77 480.827 874.276 483.789 871.024 486.791C861.923 477.073 868.538 457.708 868.594 457.502C868.856 456.766 867.735 456.355 867.473 457.091C867.174 457.956 860.558 477.392 870.164 487.591C866.109 491.373 862.465 495.212 859.456 498.996C848.915 490.527 850.392 471.862 850.411 471.664C850.429 471.339 850.205 471.046 849.887 471.01C849.551 470.975 849.27 471.208 849.233 471.534C849.158 472.376 847.663 491.106 858.727 499.925C857.456 501.562 856.316 503.188 855.326 504.793C844.486 522.768 831.105 515.227 829.218 514.998C828.134 514.547 826.882 514.956 826.284 515.995C823.798 520.456 836.245 523.026 842.711 521.937C853.475 519.821 856.951 512.867 862.483 504.509C876.911 510.993 888.442 503.81 888.591 503.734L888.666 503.669C888.871 503.478 888.909 503.162 888.741 502.915C888.572 502.637 888.199 502.553 887.937 502.727C887.806 502.803 876.873 509.574 863.137 503.515C865.511 500.002 867.267 497.754 870.388 494.19C879.677 497.456 893.506 488.034 894.142 487.593L894.198 487.538C894.403 487.344 894.459 487.015 894.272 486.769C894.085 486.498 893.712 486.426 893.45 486.61C893.301 486.712 880.013 495.786 871.267 493.223C874.593 489.517 878.2 485.847 881.994 482.25C888.236 482.801 901.393 474.081 901.991 473.685C902.234 473.52 902.327 473.148 902.14 472.862C901.935 472.588 901.58 472.513 901.318 472.694" fill="#2BA14C"/>
<path d="M1935.5 766.036C1920.68 778.628 1910.95 796.018 1898.11 810.428C1894.76 814.213 1891.13 817.78 1887.14 820.91C1870.18 834.19 1842.15 844.685 1832.71 861.443C1832.71 861.443 1814.41 888.115 1856.19 906.013C1898.01 923.906 2006.49 825.49 1992.07 773.635C1990.11 766.587 1986.61 759.238 1979.96 755.531C1964.82 747.087 1947.49 755.881 1935.6 765.94L1935.5 766.036" fill="#FFA42F"/>
<path d="M1858.61 931.822C1854.51 932.957 1850.01 932.85 1845.71 931.249C1834.94 927.237 1829.52 915.143 1833.54 904.383C1834.23 902.503 1851.46 857.87 1909.44 832.991C1951.5 814.954 1970.64 773.671 1972.93 757.611C1974.55 746.238 1985.06 738.332 1996.44 739.946C2007.81 741.561 2015.72 752.09 2014.09 763.458C2010.02 792.235 1982.44 846.931 1925.83 871.215C1884.94 888.758 1872.93 917.902 1872.42 919.143C1870.01 925.596 1864.74 930.117 1858.61 931.822" fill="#FC008B"/>
<path d="M1848.98 903.293C1848.29 898.207 1845.84 883.31 1851.6 880.244C1855.4 878.222 1856.26 886.184 1859.69 888.178C1867.2 892.546 1873.27 884.293 1874.45 877.972C1875.49 872.399 1873.59 864.04 1876.68 859.233C1884.64 846.772 1887.32 858.644 1894.52 860.105C1904.4 862.101 1905.74 851.309 1907.44 844.5C1910.85 830.727 1917.62 838.206 1920 839.022C1923.41 840.205 1927.05 840.142 1930.19 838.077C1935.19 834.753 1934.43 829.885 1936.33 824.924C1941.64 810.944 1961.75 821.739 1965.34 797.588C1966.56 789.455 1964.36 793.16 1969.82 790.979C1973.63 789.455 1976.74 789.925 1979.55 786.214C1982.13 782.795 1980.08 771.403 1982.38 769.927C1988.29 766.115 1982.99 757.314 1976.77 760.58C1972.7 762.728 1969.56 766.277 1969.11 771.034C1968.63 775.963 1972.22 776.931 1967.44 780.467C1964.71 782.484 1959.18 778.515 1955.46 790.984C1953.64 797.06 1953.52 802.095 1947.4 805.06C1944.16 806.622 1940.27 806.766 1936.98 808.27C1922.91 814.674 1928.09 825.513 1925.11 827.939C1921.72 830.707 1921.26 827.934 1918.18 827.307C1908.68 825.351 1903.24 827.863 1899.4 837.827C1898.44 840.296 1898.36 843.519 1897.18 845.872C1894.22 851.718 1891.74 848.541 1887.34 847.833C1883.86 847.272 1882.01 845.725 1878.35 847.72C1867.7 853.503 1870.71 878.361 1865.46 879.85C1861.23 881.058 1858.86 872.593 1855.22 871.287C1843.52 867.068 1832.72 887.352 1838.97 904.68C1840.79 909.667 1849.83 909.374 1848.98 903.293" fill="#FEE2BF"/>
<path d="M1977.93 788.4C1961.35 802.73 1950.56 822.584 1936.21 839.006C1932.44 843.316 1928.4 847.38 1923.93 850.94C1904.98 866.041 1873.55 877.878 1863.01 897.012C1863.01 897.012 1842.63 927.437 1889.72 948.211C1936.83 968.972 2058.1 856.96 2041.55 797.474C2039.31 789.39 2035.3 780.949 2027.82 776.659C2010.76 766.889 1991.35 776.849 1978.06 788.292L1977.93 788.4" fill="#FCC13F"/>
<path d="M1847.59 1967.12H468.722C465.03 1967.12 462.046 1964.13 462.046 1960.45C462.046 1956.77 465.03 1953.79 468.722 1953.79H1847.59C1851.28 1953.79 1854.26 1956.77 1854.26 1960.45C1854.26 1964.13 1851.28 1967.12 1847.59 1967.12Z" fill="#FEE2BF"/>
<defs>
<linearGradient id="paint0_linear" x1="2655.77" y1="-790.864" x2="2644.17" y2="489.852" gradientUnits="userSpaceOnUse">
<stop stop-color="#8BF9FD"/>
<stop offset="0.989758" stop-color="#FAFEE5"/>
<stop offset="1" stop-color="#FAFEE5"/>
</linearGradient>
<linearGradient id="paint1_linear" x1="1994.11" y1="-629.574" x2="1983.13" y2="581.356" gradientUnits="userSpaceOnUse">
<stop stop-color="#8BF9FD"/>
<stop offset="0.989758" stop-color="#FAFEE5"/>
<stop offset="1" stop-color="#FAFEE5"/>
</linearGradient>
<linearGradient id="paint2_linear" x1="4837.21" y1="-1417.25" x2="4823.16" y2="133.022" gradientUnits="userSpaceOnUse">
<stop stop-color="#8BF9FD"/>
<stop offset="0.989758" stop-color="#FAFEE5"/>
<stop offset="1" stop-color="#FAFEE5"/>
</linearGradient>
<linearGradient id="paint3_linear" x1="4498.92" y1="-1239.9" x2="4485.55" y2="235.104" gradientUnits="userSpaceOnUse">
<stop stop-color="#DAA353"/>
<stop offset="0.989758" stop-color="#FDA44C"/>
<stop offset="1" stop-color="#FDA44C"/>
</linearGradient>
</defs>
</svg>
